# xmcd CD database file
#
# Track frame offsets:
#	150
#	14115
#	29265
#	50884
#	68291
#	85294
#	102699
#	136359
#	155627
#	175851
#	190619
#	207395
#	221536
#
# Disc length: 3198 seconds
#
# Revision: 0
# Processed by: cddbd v1.5.2PL0 Copyright (c) Steve Scherf et al.
# Submitted via: CDex 1.79
#
DISCID=bd0c7c0d
DTITLE=Alan Jackson - Thirty Miles West
DYEAR=2012
DGENRE=Country
TTITLE0=Gonna Come Back as a Country Song
TTITLE1=You Go Your Way
TTITLE2=Everything But The Wings
TTITLE3=Talk Is Cheap
TTITLE4=So You Don't Have To Love Me Anymore
TTITLE5=Look Her In The Eye And Lie
TTITLE6=Dixie Highway
TTITLE7=She Don't Get High
TTITLE8=Her Life's A Song
TTITLE9=Nothin' Fancy
TTITLE10=Long Way To Go
TTITLE11=Life Keeps Bringing Me Down
TTITLE12=When I Saw You Leaving
EXTD=YEAR: 2012
EXTT0=
EXTT1=
EXTT2=
EXTT3=
EXTT4=
EXTT5=
EXTT6=
EXTT7=
EXTT8=
EXTT9=
EXTT10=
EXTT11=
EXTT12=
PLAYORDER=
